<?xml version="1.0" encoding="UTF-8"?>
<svg width="40px" height="40px" viewBox="0 0 40 40" version="1.1" xmlns="http://www.w3.org/2000/svg" xmlns:xlink="http://www.w3.org/1999/xlink">
    <!-- Generator: Sketch 52.4 (67378) - http://www.bohemiancoding.com/sketch -->
    <title>fireside-chats</title>
    <desc>Created with Sketch.</desc>
    <g id="Page-1" stroke="none" stroke-width="1" fill="none" fill-rule="evenodd">
        <g id="fireside-chats">
            <circle id="Oval" fill="#FFFFFF" fill-rule="nonzero" cx="20" cy="20" r="20"></circle>
            <path d="M29.5701688,23.6147516 L22.9213504,25.3623447 L29.5438363,27.1045807 L32.21911,26.3997671 C33.6822916,26.0161491 34.2770332,25.0793478 33.5434476,24.3118789 C32.8146496,23.5423137 31.0357442,23.2325311 29.5701688,23.6147516 Z" id="Path" fill="#A44D85"></path>
            <path d="M9.20611765,28.9693323 C7.74001023,29.3543478 7.14686445,30.2897516 7.87858824,31.0607143 C8.39832225,31.6048137 9.44337596,31.9187888 10.5328491,31.9187888 C10.9751816,31.9187888 11.4326752,31.8675466 11.8537289,31.7550466 L18.5022813,30.0093168 L11.8792634,28.2659161 L9.20611765,28.9693323 Z" id="Path" fill="#A44D85"></path>
            <path d="M32.21911,28.9693323 L11.8547928,23.6147516 C10.3913453,23.2325311 8.61403581,23.5420807 7.88018414,24.3118789 C7.14792839,25.0793478 7.73974425,26.0159161 9.20718159,26.3997671 L29.5699028,31.7550466 C29.9925524,31.8675466 30.4495141,31.9187888 30.8915806,31.9187888 C31.9807877,31.9187888 33.0279693,31.6048137 33.5466394,31.0607143 C34.2772992,30.2871894 33.6833555,29.3545807 32.21911,28.9693323 Z" id="Path" fill="#A44D85"></path>
            <path d="M17.6391611,9.92973602 C16.8300358,13.9338509 14.1635396,14.0242236 13.0280512,17.4872671 C12.1096061,20.2860248 13.0620972,22.3454969 15.2870588,24.5477484 C14.5106496,21.2216615 18.7960679,21.827695 18.9527329,18.6311111 C20.4967738,20.4311111 21.9638056,20.5890528 21.1900563,23.1101708 C23.5107724,21.0837733 23.4379844,19.2656514 22.4346903,17.0620023 C26.8742401,18.8133222 23.3519795,23.199146 26.8640409,24.1895186 C26.2839284,22.6028727 29.3254629,20.9128106 28.6445422,17.0812888 C28.1229463,14.1635093 24.436399,9.28315217 21.2650639,6.46482919 C21.5382302,10.247205 18.5663836,16.1847826 17.6391611,9.92973602 Z" id="Path" fill="#A44D85"></path>
        </g>
    </g>
</svg>