<?xml version="1.0" encoding="UTF-8"?>
<svg width="211px" height="130px" viewBox="0 0 211 130" version="1.1" xmlns="http://www.w3.org/2000/svg" xmlns:xlink="http://www.w3.org/1999/xlink">
    <!-- Generator: Sketch 55.2 (78181) - https://sketchapp.com -->
    <title>Slice 1</title>
    <desc>Created with Sketch.</desc>
    <g id="Page-1" stroke="none" stroke-width="1" fill="none" fill-rule="evenodd">
        <g id="textLogo" fill="#212529" fill-rule="nonzero">
            <path d="M20.82,103.08 C8.94,103.08 0.12,94.44 0.3,81.3 L0.3,70.86 L9.84,70.86 L9.84,81.3 C9.48,88.32 13.26,94.62 20.82,94.62 C28.2,94.62 31.8,88.86 31.8,81.48 L31.8,73.92 C31.8,69.06 27.12,66.36 20.46,62.4 C9.12,55.74 0.48,50.52 0.3,40.62 L0.3,21.9 C0.3,9.84 6.6,0.66 19.74,0.66 C31.62,0.66 38.28,9.48 38.28,21.54 L38.28,35.4 L29.28,35.4 L29.28,21.72 C29.28,14.88 26.58,9.3 19.74,9.3 C14.16,9.3 10.02,13.26 10.02,21.9 L10.02,40.26 C10.38,45.48 15.24,48.9 23.34,53.76 C31.98,58.8 41.16,63.84 40.98,73.38 L40.98,81.48 C40.98,93.18 34.5,103.08 20.82,103.08 Z M85.59,1.38 L94.95,1.38 L94.95,102 L85.59,102 L85.59,76.8 L63.99,76.8 L63.99,102 L54.45,102 L54.45,1.38 L63.99,1.38 L63.99,68.16 L85.59,68.16 L85.59,1.38 Z M119.76,102 L110.4,102 L110.4,1.38 L119.76,1.38 L119.76,102 Z M168.51,9.66 L143.49,9.66 L143.49,67.26 L164.73,67.26 L164.73,75.9 L143.49,75.9 L143.49,102 L133.77,102 L133.77,1.38 L168.51,1.38 L168.51,9.66 Z M210.42,1.38 L210.42,9.66 L196.74,9.66 L196.74,102 L187.74,102 L187.74,9.66 L173.88,9.66 L173.88,1.38 L210.42,1.38 Z" id="shift"></path>
            <path d="M132.424,129.16 C130.792,129.16 129.432,128.648 128.184,127.656 C128.04,127.56 127.944,127.384 127.944,127.176 C127.944,126.824 128.216,126.552 128.552,126.552 C128.712,126.552 128.856,126.616 128.936,126.696 C129.992,127.592 131.048,128.024 132.472,128.024 C133.976,128.024 134.968,127.224 134.968,126.12 L134.968,126.088 C134.968,125.048 134.408,124.456 132.056,123.96 C129.48,123.4 128.296,122.568 128.296,120.728 L128.296,120.696 C128.296,118.936 129.848,117.64 131.976,117.64 C133.448,117.64 134.52,118.008 135.544,118.744 C135.672,118.84 135.816,119.016 135.816,119.256 C135.816,119.592 135.544,119.864 135.208,119.864 C135.064,119.864 134.952,119.832 134.84,119.752 C133.896,119.064 132.984,118.776 131.944,118.776 C130.488,118.776 129.56,119.576 129.56,120.584 L129.56,120.616 C129.56,121.672 130.136,122.264 132.6,122.792 C135.096,123.336 136.248,124.248 136.248,125.96 L136.248,125.992 C136.248,127.912 134.648,129.16 132.424,129.16 Z M143.824,128.44 L143.824,118.44 C143.824,118.088 144.112,117.8 144.448,117.8 L148.016,117.8 C150.544,117.8 152.208,119.144 152.208,121.352 L152.208,121.384 C152.208,123.8 150.192,125.048 147.808,125.048 L145.088,125.048 L145.088,128.44 C145.088,128.792 144.8,129.08 144.448,129.08 C144.112,129.08 143.824,128.792 143.824,128.44 Z M145.088,123.896 L147.856,123.896 C149.712,123.896 150.928,122.904 150.928,121.432 L150.928,121.4 C150.928,119.8 149.728,118.968 147.92,118.968 L145.088,118.968 L145.088,123.896 Z M157.704,128.504 C157.704,128.408 157.72,128.296 157.784,128.168 L162.328,118.232 C162.488,117.88 162.728,117.672 163.128,117.672 L163.192,117.672 C163.576,117.672 163.832,117.88 163.976,118.232 L168.52,128.152 C168.568,128.264 168.6,128.376 168.6,128.472 C168.6,128.808 168.328,129.08 167.992,129.08 C167.688,129.08 167.48,128.872 167.368,128.616 L166.2,126.04 L160.056,126.04 L158.888,128.648 C158.776,128.92 158.568,129.08 158.28,129.08 C157.96,129.08 157.704,128.824 157.704,128.504 Z M160.552,124.888 L165.704,124.888 L163.128,119.16 L160.552,124.888 Z M180.56,129.192 C177.328,129.192 174.944,126.648 174.944,123.432 L174.944,123.4 C174.944,120.232 177.312,117.608 180.608,117.608 C182.416,117.608 183.568,118.2 184.608,119.064 C184.736,119.176 184.864,119.352 184.864,119.576 C184.864,119.912 184.56,120.2 184.224,120.2 C184.048,120.2 183.904,120.12 183.808,120.056 C182.944,119.288 181.968,118.776 180.592,118.776 C178.112,118.776 176.256,120.792 176.256,123.368 L176.256,123.4 C176.256,125.992 178.128,128.024 180.592,128.024 C181.984,128.024 182.96,127.544 183.92,126.664 C184.016,126.568 184.16,126.488 184.32,126.488 C184.64,126.488 184.928,126.776 184.928,127.096 C184.928,127.288 184.832,127.448 184.72,127.544 C183.616,128.552 182.4,129.192 180.56,129.192 Z M192.872,129 C192.536,129 192.248,128.712 192.248,128.36 L192.248,118.44 C192.248,118.088 192.536,117.8 192.872,117.8 L199.832,117.8 C200.152,117.8 200.408,118.056 200.408,118.376 C200.408,118.696 200.152,118.952 199.832,118.952 L193.512,118.952 L193.512,122.776 L199.112,122.776 C199.432,122.776 199.688,123.048 199.688,123.352 C199.688,123.672 199.432,123.928 199.112,123.928 L193.512,123.928 L193.512,127.848 L199.912,127.848 C200.232,127.848 200.488,128.104 200.488,128.424 C200.488,128.744 200.232,129 199.912,129 L192.872,129 Z" id="SPACE"></path>
            <path d="M5.704,129.192 C2.472,129.192 0.088,126.648 0.088,123.432 L0.088,123.4 C0.088,120.232 2.456,117.608 5.752,117.608 C7.56,117.608 8.712,118.2 9.752,119.064 C9.88,119.176 10.008,119.352 10.008,119.576 C10.008,119.912 9.704,120.2 9.368,120.2 C9.192,120.2 9.048,120.12 8.952,120.056 C8.088,119.288 7.112,118.776 5.736,118.776 C3.256,118.776 1.4,120.792 1.4,123.368 L1.4,123.4 C1.4,125.992 3.272,128.024 5.736,128.024 C7.128,128.024 8.104,127.544 9.064,126.664 C9.16,126.568 9.304,126.488 9.464,126.488 C9.784,126.488 10.072,126.776 10.072,127.096 C10.072,127.288 9.976,127.448 9.864,127.544 C8.76,128.552 7.544,129.192 5.704,129.192 Z M17.392,128.44 L17.392,118.44 C17.392,118.088 17.68,117.8 18.016,117.8 L22.208,117.8 C23.584,117.8 24.688,118.216 25.392,118.92 C25.936,119.464 26.256,120.248 26.256,121.128 L26.256,121.16 C26.256,123 25.008,124.072 23.264,124.408 L26.048,127.992 C26.176,128.136 26.256,128.28 26.256,128.456 C26.256,128.792 25.936,129.08 25.616,129.08 C25.36,129.08 25.168,128.936 25.024,128.744 L21.872,124.648 L18.656,124.648 L18.656,128.44 C18.656,128.792 18.368,129.08 18.016,129.08 C17.68,129.08 17.392,128.792 17.392,128.44 Z M18.656,123.512 L22.096,123.512 C23.776,123.512 24.976,122.648 24.976,121.208 L24.976,121.176 C24.976,119.8 23.92,118.968 22.112,118.968 L18.656,118.968 L18.656,123.512 Z M34.584,129 C34.248,129 33.96,128.712 33.96,128.36 L33.96,118.44 C33.96,118.088 34.248,117.8 34.584,117.8 L41.544,117.8 C41.864,117.8 42.12,118.056 42.12,118.376 C42.12,118.696 41.864,118.952 41.544,118.952 L35.224,118.952 L35.224,122.776 L40.824,122.776 C41.144,122.776 41.4,123.048 41.4,123.352 C41.4,123.672 41.144,123.928 40.824,123.928 L35.224,123.928 L35.224,127.848 L41.624,127.848 C41.944,127.848 42.2,128.104 42.2,128.424 C42.2,128.744 41.944,129 41.624,129 L34.584,129 Z M48.912,128.504 C48.912,128.408 48.928,128.296 48.992,128.168 L53.536,118.232 C53.696,117.88 53.936,117.672 54.336,117.672 L54.4,117.672 C54.784,117.672 55.04,117.88 55.184,118.232 L59.728,128.152 C59.776,128.264 59.808,128.376 59.808,128.472 C59.808,128.808 59.536,129.08 59.2,129.08 C58.896,129.08 58.688,128.872 58.576,128.616 L57.408,126.04 L51.264,126.04 L50.096,128.648 C49.984,128.92 49.776,129.08 49.488,129.08 C49.168,129.08 48.912,128.824 48.912,128.504 Z M51.76,124.888 L56.912,124.888 L54.336,119.16 L51.76,124.888 Z M68.808,128.44 L68.808,118.968 L65.56,118.968 C65.24,118.968 64.968,118.712 64.968,118.392 C64.968,118.072 65.24,117.8 65.56,117.8 L73.336,117.8 C73.656,117.8 73.928,118.072 73.928,118.392 C73.928,118.712 73.656,118.968 73.336,118.968 L70.088,118.968 L70.088,128.44 C70.088,128.792 69.8,129.08 69.448,129.08 C69.096,129.08 68.808,128.792 68.808,128.44 Z M85.648,129.192 C82.24,129.192 79.952,126.52 79.952,123.432 L79.952,123.4 C79.952,120.312 82.272,117.608 85.68,117.608 C89.088,117.608 91.376,120.28 91.376,123.368 L91.376,123.4 C91.376,126.488 89.056,129.192 85.648,129.192 Z M85.68,128.024 C88.24,128.024 90.064,125.976 90.064,123.432 L90.064,123.4 C90.064,120.856 88.208,118.776 85.648,118.776 C83.088,118.776 81.264,120.824 81.264,123.368 L81.264,123.4 C81.264,125.944 83.12,128.024 85.68,128.024 Z M99.048,128.44 L99.048,118.44 C99.048,118.088 99.336,117.8 99.672,117.8 L103.864,117.8 C105.24,117.8 106.344,118.216 107.048,118.92 C107.592,119.464 107.912,120.248 107.912,121.128 L107.912,121.16 C107.912,123 106.664,124.072 104.92,124.408 L107.704,127.992 C107.832,128.136 107.912,128.28 107.912,128.456 C107.912,128.792 107.592,129.08 107.272,129.08 C107.016,129.08 106.824,128.936 106.68,128.744 L103.528,124.648 L100.312,124.648 L100.312,128.44 C100.312,128.792 100.024,129.08 99.672,129.08 C99.336,129.08 99.048,128.792 99.048,128.44 Z M100.312,123.512 L103.752,123.512 C105.432,123.512 106.632,122.648 106.632,121.208 L106.632,121.176 C106.632,119.8 105.576,118.968 103.768,118.968 L100.312,118.968 L100.312,123.512 Z" id="CREATOR"></path>
        </g>
    </g>
</svg>