<?xml version="1.0" encoding="UTF-8"?>
<svg width="211px" height="130px" viewBox="0 0 211 130" version="1.1" xmlns="http://www.w3.org/2000/svg" xmlns:xlink="http://www.w3.org/1999/xlink">
    <!-- Generator: Sketch 55 (78076) - https://sketchapp.com -->
    <title>Group 22</title>
    <desc>Created with Sketch.</desc>
    <g id="Page-1" stroke="none" stroke-width="1" fill="none" fill-rule="evenodd">
        <g id="Group-22" transform="translate(0.088000, 0.660000)" fill="#4A4A4A" fill-rule="nonzero">
            <path d="M20.732,102.42 C8.852,102.42 0.032,93.78 0.212,80.64 L0.212,70.2 L9.752,70.2 L9.752,80.64 C9.392,87.66 13.172,93.96 20.732,93.96 C28.112,93.96 31.712,88.2 31.712,80.82 L31.712,73.26 C31.712,68.4 27.032,65.7 20.372,61.74 C9.032,55.08 0.392,49.86 0.212,39.96 L0.212,21.24 C0.212,9.18 6.512,0 19.652,0 C31.532,0 38.192,8.82 38.192,20.88 L38.192,34.74 L29.192,34.74 L29.192,21.06 C29.192,14.22 26.492,8.64 19.652,8.64 C14.072,8.64 9.932,12.6 9.932,21.24 L9.932,39.6 C10.292,44.82 15.152,48.24 23.252,53.1 C31.892,58.14 41.072,63.18 40.892,72.72 L40.892,80.82 C40.892,92.52 34.412,102.42 20.732,102.42 Z M85.502,0.72 L94.862,0.72 L94.862,101.34 L85.502,101.34 L85.502,76.14 L63.902,76.14 L63.902,101.34 L54.362,101.34 L54.362,0.72 L63.902,0.72 L63.902,67.5 L85.502,67.5 L85.502,0.72 Z M119.672,101.34 L110.312,101.34 L110.312,0.72 L119.672,0.72 L119.672,101.34 Z M168.422,9 L143.402,9 L143.402,66.6 L164.642,66.6 L164.642,75.24 L143.402,75.24 L143.402,101.34 L133.682,101.34 L133.682,0.72 L168.422,0.72 L168.422,9 Z M210.332,0.72 L210.332,9 L196.652,9 L196.652,101.34 L187.652,101.34 L187.652,9 L173.792,9 L173.792,0.72 L210.332,0.72 Z" id="shift"></path>
            <path d="M132.336,128.5 C130.704,128.5 129.344,127.988 128.096,126.996 C127.952,126.9 127.856,126.724 127.856,126.516 C127.856,126.164 128.128,125.892 128.464,125.892 C128.624,125.892 128.768,125.956 128.848,126.036 C129.904,126.932 130.96,127.364 132.384,127.364 C133.888,127.364 134.88,126.564 134.88,125.46 L134.88,125.428 C134.88,124.388 134.32,123.796 131.968,123.3 C129.392,122.74 128.208,121.908 128.208,120.068 L128.208,120.036 C128.208,118.276 129.76,116.98 131.888,116.98 C133.36,116.98 134.432,117.348 135.456,118.084 C135.584,118.18 135.728,118.356 135.728,118.596 C135.728,118.932 135.456,119.204 135.12,119.204 C134.976,119.204 134.864,119.172 134.752,119.092 C133.808,118.404 132.896,118.116 131.856,118.116 C130.4,118.116 129.472,118.916 129.472,119.924 L129.472,119.956 C129.472,121.012 130.048,121.604 132.512,122.132 C135.008,122.676 136.16,123.588 136.16,125.3 L136.16,125.332 C136.16,127.252 134.56,128.5 132.336,128.5 Z M143.736,127.78 L143.736,117.78 C143.736,117.428 144.024,117.14 144.36,117.14 L147.928,117.14 C150.456,117.14 152.12,118.484 152.12,120.692 L152.12,120.724 C152.12,123.14 150.104,124.388 147.72,124.388 L145,124.388 L145,127.78 C145,128.132 144.712,128.42 144.36,128.42 C144.024,128.42 143.736,128.132 143.736,127.78 Z M145,123.236 L147.768,123.236 C149.624,123.236 150.84,122.244 150.84,120.772 L150.84,120.74 C150.84,119.14 149.64,118.308 147.832,118.308 L145,118.308 L145,123.236 Z M157.616,127.844 C157.616,127.748 157.632,127.636 157.696,127.508 L162.24,117.572 C162.4,117.22 162.64,117.012 163.04,117.012 L163.104,117.012 C163.488,117.012 163.744,117.22 163.888,117.572 L168.432,127.492 C168.48,127.604 168.512,127.716 168.512,127.812 C168.512,128.148 168.24,128.42 167.904,128.42 C167.6,128.42 167.392,128.212 167.28,127.956 L166.112,125.38 L159.968,125.38 L158.8,127.988 C158.688,128.26 158.48,128.42 158.192,128.42 C157.872,128.42 157.616,128.164 157.616,127.844 Z M160.464,124.228 L165.616,124.228 L163.04,118.5 L160.464,124.228 Z M180.472,128.532 C177.24,128.532 174.856,125.988 174.856,122.772 L174.856,122.74 C174.856,119.572 177.224,116.948 180.52,116.948 C182.328,116.948 183.48,117.54 184.52,118.404 C184.648,118.516 184.776,118.692 184.776,118.916 C184.776,119.252 184.472,119.54 184.136,119.54 C183.96,119.54 183.816,119.46 183.72,119.396 C182.856,118.628 181.88,118.116 180.504,118.116 C178.024,118.116 176.168,120.132 176.168,122.708 L176.168,122.74 C176.168,125.332 178.04,127.364 180.504,127.364 C181.896,127.364 182.872,126.884 183.832,126.004 C183.928,125.908 184.072,125.828 184.232,125.828 C184.552,125.828 184.84,126.116 184.84,126.436 C184.84,126.628 184.744,126.788 184.632,126.884 C183.528,127.892 182.312,128.532 180.472,128.532 Z M192.784,128.34 C192.448,128.34 192.16,128.052 192.16,127.7 L192.16,117.78 C192.16,117.428 192.448,117.14 192.784,117.14 L199.744,117.14 C200.064,117.14 200.32,117.396 200.32,117.716 C200.32,118.036 200.064,118.292 199.744,118.292 L193.424,118.292 L193.424,122.116 L199.024,122.116 C199.344,122.116 199.6,122.388 199.6,122.692 C199.6,123.012 199.344,123.268 199.024,123.268 L193.424,123.268 L193.424,127.188 L199.824,127.188 C200.144,127.188 200.4,127.444 200.4,127.764 C200.4,128.084 200.144,128.34 199.824,128.34 L192.784,128.34 Z" id="SPACE"></path>
            <path d="M5.616,128.532 C2.384,128.532 0,125.988 0,122.772 L0,122.74 C0,119.572 2.368,116.948 5.664,116.948 C7.472,116.948 8.624,117.54 9.664,118.404 C9.792,118.516 9.92,118.692 9.92,118.916 C9.92,119.252 9.616,119.54 9.28,119.54 C9.104,119.54 8.96,119.46 8.864,119.396 C8,118.628 7.024,118.116 5.648,118.116 C3.168,118.116 1.312,120.132 1.312,122.708 L1.312,122.74 C1.312,125.332 3.184,127.364 5.648,127.364 C7.04,127.364 8.016,126.884 8.976,126.004 C9.072,125.908 9.216,125.828 9.376,125.828 C9.696,125.828 9.984,126.116 9.984,126.436 C9.984,126.628 9.888,126.788 9.776,126.884 C8.672,127.892 7.456,128.532 5.616,128.532 Z M17.304,127.78 L17.304,117.78 C17.304,117.428 17.592,117.14 17.928,117.14 L22.12,117.14 C23.496,117.14 24.6,117.556 25.304,118.26 C25.848,118.804 26.168,119.588 26.168,120.468 L26.168,120.5 C26.168,122.34 24.92,123.412 23.176,123.748 L25.96,127.332 C26.088,127.476 26.168,127.62 26.168,127.796 C26.168,128.132 25.848,128.42 25.528,128.42 C25.272,128.42 25.08,128.276 24.936,128.084 L21.784,123.988 L18.568,123.988 L18.568,127.78 C18.568,128.132 18.28,128.42 17.928,128.42 C17.592,128.42 17.304,128.132 17.304,127.78 Z M18.568,122.852 L22.008,122.852 C23.688,122.852 24.888,121.988 24.888,120.548 L24.888,120.516 C24.888,119.14 23.832,118.308 22.024,118.308 L18.568,118.308 L18.568,122.852 Z M34.496,128.34 C34.16,128.34 33.872,128.052 33.872,127.7 L33.872,117.78 C33.872,117.428 34.16,117.14 34.496,117.14 L41.456,117.14 C41.776,117.14 42.032,117.396 42.032,117.716 C42.032,118.036 41.776,118.292 41.456,118.292 L35.136,118.292 L35.136,122.116 L40.736,122.116 C41.056,122.116 41.312,122.388 41.312,122.692 C41.312,123.012 41.056,123.268 40.736,123.268 L35.136,123.268 L35.136,127.188 L41.536,127.188 C41.856,127.188 42.112,127.444 42.112,127.764 C42.112,128.084 41.856,128.34 41.536,128.34 L34.496,128.34 Z M48.824,127.844 C48.824,127.748 48.84,127.636 48.904,127.508 L53.448,117.572 C53.608,117.22 53.848,117.012 54.248,117.012 L54.312,117.012 C54.696,117.012 54.952,117.22 55.096,117.572 L59.64,127.492 C59.688,127.604 59.72,127.716 59.72,127.812 C59.72,128.148 59.448,128.42 59.112,128.42 C58.808,128.42 58.6,128.212 58.488,127.956 L57.32,125.38 L51.176,125.38 L50.008,127.988 C49.896,128.26 49.688,128.42 49.4,128.42 C49.08,128.42 48.824,128.164 48.824,127.844 Z M51.672,124.228 L56.824,124.228 L54.248,118.5 L51.672,124.228 Z M68.72,127.78 L68.72,118.308 L65.472,118.308 C65.152,118.308 64.88,118.052 64.88,117.732 C64.88,117.412 65.152,117.14 65.472,117.14 L73.248,117.14 C73.568,117.14 73.84,117.412 73.84,117.732 C73.84,118.052 73.568,118.308 73.248,118.308 L70,118.308 L70,127.78 C70,128.132 69.712,128.42 69.36,128.42 C69.008,128.42 68.72,128.132 68.72,127.78 Z M85.56,128.532 C82.152,128.532 79.864,125.86 79.864,122.772 L79.864,122.74 C79.864,119.652 82.184,116.948 85.592,116.948 C89,116.948 91.288,119.62 91.288,122.708 L91.288,122.74 C91.288,125.828 88.968,128.532 85.56,128.532 Z M85.592,127.364 C88.152,127.364 89.976,125.316 89.976,122.772 L89.976,122.74 C89.976,120.196 88.12,118.116 85.56,118.116 C83,118.116 81.176,120.164 81.176,122.708 L81.176,122.74 C81.176,125.284 83.032,127.364 85.592,127.364 Z M98.96,127.78 L98.96,117.78 C98.96,117.428 99.248,117.14 99.584,117.14 L103.776,117.14 C105.152,117.14 106.256,117.556 106.96,118.26 C107.504,118.804 107.824,119.588 107.824,120.468 L107.824,120.5 C107.824,122.34 106.576,123.412 104.832,123.748 L107.616,127.332 C107.744,127.476 107.824,127.62 107.824,127.796 C107.824,128.132 107.504,128.42 107.184,128.42 C106.928,128.42 106.736,128.276 106.592,128.084 L103.44,123.988 L100.224,123.988 L100.224,127.78 C100.224,128.132 99.936,128.42 99.584,128.42 C99.248,128.42 98.96,128.132 98.96,127.78 Z M100.224,122.852 L103.664,122.852 C105.344,122.852 106.544,121.988 106.544,120.548 L106.544,120.516 C106.544,119.14 105.488,118.308 103.68,118.308 L100.224,118.308 L100.224,122.852 Z" id="CREATOR"></path>
        </g>
    </g>
</svg>